<?xml version="1.0" encoding="UTF-8"?>
<svg id="Layer_2" xmlns="http://www.w3.org/2000/svg" version="1.1" viewBox="0 0 1167 395">
  <!-- Generator: Adobe Illustrator 30.1.0, SVG Export Plug-In . SVG Version: 2.1.1 Build 136)  -->
  <defs>
    <style>
      .st0 {
        fill: #0b77be;
      }
    </style>
  </defs>
  <g id="Layer_1-2">
    <polygon class="st0" points="406.7 140.8 526.9 1.3 386.1 121.7 406.7 140.8"/>
    <path class="st0" d="M249.7,112.9c38.2-1.5,73.3,14.7,96.8,42.6l-74.8,61.7-10.3,8.8-83.6-80.8c19.1-17.6,44-29.4,71.9-32.3M365.6,187.8l-123.2,141-1.5-1.4v1.4l-39.6-95.5-33.8-77.9c-17.6,22-27.9,51.4-26.4,80.8,4.4,64.7,58.7,113.1,123.3,110.2,63.1-4.5,112.9-60.3,108.6-123.5,0-13.2-3-25-7.3-35.3"/>
    <path class="st0" d="M323,104.1c142.3,69,206.9,224.8,193.7,251.2-13.3,25-179,70.5-321.3,1.5C53.1,289.2-4.2,118.8.2,107c5.8-11.8,180.5-70.5,322.8-3M301,112.9c-127.7-44.1-252.4,5.9-258.2,22.1-5.9,14.7,49.9,170.4,176.1,214.5,127.6,44.1,246.5,8.8,258.2-20.6s-49.9-171.9-176.1-216"/>
    <rect class="st0" x="552.6" y=".7" width="17.7" height="84.8"/>
    <path class="st0" d="M647.3,40.7c-3.8-3-11.8-4.8-24.5-5.5s-16.8-1.6-18-2.3c-1-.6-2.3-2.6-2.3-8.5s1-6.6,2.9-7.8c2.1-1.3,6.8-1.9,14.1-1.9s10.4.9,11.4,1.6,2.2,2.7,2.7,8c0,.4,0,1,0,1.8v.9h17.3v-4.2c0-8.9-2.3-15-6.9-18.1-4.5-3.1-12.9-4.6-25.7-4.6s-22.3,1.6-26.9,5c-4.6,3.4-7,10.2-7,20.1s1.9,16.2,5.8,19.3c3.8,3,12.2,4.9,25.6,5.7l8.7.5c5.8.3,8,1.4,8.9,2.1,1.2,1.1,1.9,3.6,1.9,7.2s-.9,8.3-2.5,9.6c-1.2.9-4.4,2-12.8,2s-14.7-1-16-1.8c-1.2-.8-2.6-3.1-2.6-9.8v-2.7h-17.3v4c0,9.9,2.4,16.6,6.9,20,4.5,3.3,13.1,4.9,26.5,4.9s24.2-1.6,28.7-5,6.8-10.7,6.8-22.1-1.9-15.4-5.8-18.4h0Z"/>
    <path class="st0" d="M702.1,0c-17.4,0-28,2.6-32.6,7.9-4.5,5.3-6.7,17.7-6.7,37.9s2.2,27.7,6.9,32.9c4.6,5.1,14.4,7.6,29.9,7.6s27.7-2.5,32.3-7.7c4.5-5.2,6.8-17.1,6.8-36.5s-2.2-28.9-6.7-34.2c-4.6-5.3-14.3-7.8-29.8-7.8h-.1ZM717.9,67.1c-1.2,1.7-5,3.7-16.7,3.7s-16.3-1.8-17.6-3.3-2.9-6.4-2.9-20.8,1.4-25.9,2.5-27.6,5-3.6,17.7-3.6,16.1,1.8,17.2,3.4c1.2,1.6,2.6,7.1,2.6,24s-1.5,22.5-2.7,24.3h0Z"/>
    <path class="st0" d="M807.2,60.1c1-.8,4.7-2.2,16.5-4.3,12.1-2.2,19.7-5,23.1-8.4,3.5-3.5,5.2-10,5.2-20s-2.3-17.7-6.8-21.5c-4.5-3.8-12.8-5.7-25.2-5.7s-21,1.8-25.6,5.6c-4.5,3.8-6.8,11.1-6.8,21.8v4.5h17.4v-4.5c0-7.1,1.3-9.7,2.4-10.6,1.1-1,4.2-2.1,12.5-2.1s11.1,1.1,12.2,2.1c1.1.9,2.4,3.4,2.4,10.2s-1.3,9.5-2.3,10.4c-1.1.9-5,2.4-16.9,4.6-12.1,2.2-19.5,4.7-22.8,7.7-3.4,3.1-5,9-5,18.2v17.9h64.5v-14.4h-46.8v-1.2c0-7.2,1.2-9.2,2-9.8v-.5Z"/>
    <polygon class="st0" points="868.8 16 913.9 16 878.8 85.6 898.5 85.6 932.1 17.3 932.2 .7 868.8 .7 868.8 16"/>
    <path class="st0" d="M985.5,0c-15.7,0-25.1,2.3-28.9,7.1-3.7,4.7-5.5,16.5-5.5,36s1.8,31.3,5.5,36c3.8,4.8,13.2,7.1,28.9,7.1s25.1-2.3,28.9-7.1c3.7-4.7,5.5-16.5,5.5-36s-1.8-31.3-5.5-36C1010.6,2.3,1001.2,0,985.5,0ZM1000,67.1c-1,1.7-4.4,3.7-14.4,3.7s-13.2-1.5-14.4-2.7-2.6-4.8-2.6-14.8v-10.1c0,0,0-10.9,0-10.9,0-9.2,1.4-12.7,2.6-14,1.2-1.3,4.4-2.8,13-2.8s14.9,1.7,15.9,3.1c1,1.5,2.3,6.9,2.3,24s-1.3,22.6-2.4,24.4h0Z"/>
    <path class="st0" d="M1068,0c-15.7,0-25.1,2.3-28.9,7.1-3.7,4.7-5.5,16.5-5.5,36s1.8,31.3,5.5,36c3.8,4.8,13.2,7.1,28.9,7.1s25.1-2.3,28.9-7.1c3.7-4.7,5.5-16.5,5.5-36s-1.8-31.3-5.5-36C1093.1,2.3,1083.7,0,1068,0ZM1082.6,67.1c-1,1.7-4.4,3.7-14.4,3.7s-13.2-1.5-14.4-2.7c-1.2-1.2-2.6-4.8-2.6-14.8v-10.1c0,0,0-10.9,0-10.9,0-9.2,1.4-12.7,2.6-14s4.4-2.8,13-2.8,14.9,1.7,15.9,3.1c1,1.5,2.3,6.9,2.3,24s-1.3,22.6-2.4,24.4h0Z"/>
    <polygon class="st0" points="1145.8 .7 1118.1 26.6 1128.8 38.2 1149.3 17.8 1149.3 85.6 1167 85.6 1167 .7 1145.8 .7"/>
    <path class="st0" d="M752,163.3h-6.8v31.5h6.8c4.7,0,8.2-1.1,10.5-3.3,2.3-2.3,3.5-6.3,3.5-12.3s-.9-9.8-2.8-12.2c-1.8-2.5-5.6-3.7-11.2-3.7Z"/>
    <path class="st0" d="M1104.8,163.3h-5v76.7h6c6.8,0,11.5-1.5,14.2-4.4,2.7-3,4.1-8.5,4.1-16.5v-32.3c0-8.6-1.2-14.6-3.5-18.1-2.4-3.6-7.6-5.3-15.7-5.3h0Z"/>
    <path class="st0" d="M552.7,110.1v181.7h614.3V110.1h-614.3ZM645.5,223.6c0,11.8-2.5,20.5-7.6,26s-13.5,8.2-25.3,8.2-20.7-2.7-26.5-8.2-8.6-16.1-8.6-31.7v-37.6c0-13.4,3-22.5,9.1-27.4s14.4-7.4,25.1-7.4,18.8,2.4,24.4,7.2c5.5,4.8,8.3,12.6,8.3,23.5v5.7h-22.5c0-8.4-.9-13.8-2.6-16.1-1.7-2.4-4.2-3.5-7.5-3.5s-7.7,1.8-9.3,5.4c-1.6,3.5-2.4,9.9-2.4,19v23.2c0,14.7,1,23.6,2.9,26.8,2,3.1,4.9,4.7,8.9,4.7s6.9-1.3,8.6-4c1.8-2.7,2.7-7.8,2.7-15.3v-3.8h22.5v5.6l-.2-.3ZM712.3,256.6h-56.2v-109.9h55.2v16.6h-32.7v28.6h31.7v16.6h-31.7v31.5h33.7v16.6h0ZM767.8,256.6c-1-5.8-1.4-10.6-1.4-14.5v-16.2c0-5.3-1-9-3.1-11.3-2.1-2.2-5.8-3.3-11.1-3.3h-6.8v45.2h-22.5v-109.9h35c11.8,0,19.9,2.5,24.2,7.6,4.3,5,6.5,12.1,6.5,21.2s-1.3,13.9-3.9,18.2c-2.6,4.3-7.1,7.2-13.6,8.8,7.4,1.6,12.2,4.4,14.4,8.5s3.3,9.2,3.3,15.3v18c0,4.2.5,8.3,1.6,12.4h-22.6ZM865.8,163.3h-24.5v93.3h-22.5v-93.3h-24.5v-16.6h71.5v16.6ZM895.6,256.6h-22.5v-109.9h22.5v109.9ZM961.8,163.3h-30.3v29.8h28.6v16.6h-28.6v46.9h-22.5v-109.9h52.8v16.6h0ZM995.5,256.6h-22.5v-109.9h22.5v109.9ZM1065.4,256.6h-56.2v-109.9h55.2v16.6h-32.7v28.6h31.7v16.6h-31.7v31.5h33.7v16.6h0ZM1146.6,215.4c0,16.3-2.8,27.2-8.5,32.8-5.6,5.6-14.7,8.4-27.2,8.4h-33.6v-109.9h32.5c12.8,0,22.2,2.9,28,8.7,5.9,5.8,8.8,16.6,8.8,32.3v27.6h0Z"/>
    <path class="st0" d="M566.5,371.3c-.6,0-1.2,0-1.9-.2s-1.4-.4-2.1-.7c-.7-.3-1.3-.7-2-1.1-.6-.4-1.1-.9-1.5-1.5l-.5,3.1h-4v-37.2h4.5v15.5c1.7-2.1,4.2-3.1,7.5-3.1s3.1.3,4.5,1,2.5,1.6,3.5,2.7c1,1.2,1.7,2.5,2.2,4s.8,3.1.8,4.8-.3,3.4-.8,4.9c-.6,1.5-1.3,2.9-2.3,4s-2.2,2-3.5,2.7-2.8,1-4.3,1h-.1ZM566,350c-1,0-1.9.2-2.7.6-.9.4-1.6.9-2.3,1.7-.7.7-1.2,1.7-1.6,2.7-.4,1.1-.6,2.3-.6,3.7s.2,2.7.6,3.8c.4,1.1.9,2,1.6,2.7.7.7,1.4,1.3,2.3,1.6.9.4,1.8.5,2.8.5s2-.2,2.9-.7,1.6-1.1,2.2-1.9c.6-.8,1.1-1.7,1.4-2.8.3-1.1.5-2.2.5-3.3s-.2-2.4-.5-3.4c-.3-1.1-.8-2-1.4-2.7-.6-.8-1.3-1.4-2.2-1.8s-1.8-.7-2.8-.7h-.2Z"/>
    <path class="st0" d="M603.1,346.6l-14.8,36.3h-4.9l5.6-13.1-10.1-23.2h4.9l7.6,18,6.8-18h4.9Z"/>
    <path class="st0" d="M655.5,395c-9,0-16-1.8-21.1-5.4l1.4-11c1.7,1.5,4.3,2.9,7.7,4.3,3.5,1.3,7.3,2,11.5,2,8.2,0,12.3-2.6,12.3-7.7s-4.1-8-12.3-10.2c-2.5-.6-4.9-1.3-7.1-2.1-2.2-.8-4.2-1.8-6-3.1-1.8-1.3-3.2-3-4.3-5s-1.8-4.5-1.9-7.6c0-5.3,1.9-9.7,5.7-13.2s9.6-5.3,17.5-5.3,11.2,1.3,16.7,4l-1.4,10.3c-4.4-3.7-9.4-5.5-15.1-5.5s-11.9,2.8-11.9,8.4.2,2.5.6,3.4c.4.9,1.2,1.8,2.3,2.5s2.6,1.4,4.4,2.1c1.8.7,4.2,1.4,7,2.3,1.8.5,3.7,1.2,5.7,2.1s4,2,5.7,3.5c1.8,1.4,3.2,3.2,4.4,5.3,1.2,2.1,1.8,4.6,1.8,7.6s-.3,4.1-1,6.3c-.7,2.2-1.9,4.2-3.6,5.9-1.8,1.8-4.2,3.2-7.2,4.4-3.1,1.2-6.9,1.8-11.6,1.8h-.2Z"/>
    <path class="st0" d="M717.2,395c-4.9,0-9.3-.8-13.1-2.5-3.8-1.6-7-3.9-9.6-6.8s-4.6-6.3-6-10.2c-1.3-3.9-2-8.2-2-12.8s.7-9,2-12.9,3.3-7.3,5.8-10.1c2.6-2.9,5.7-5.1,9.6-6.6,3.8-1.6,8.2-2.3,13.1-2.3,8.2,0,14.5,1.2,19,3.6l-1.8,10.2c-5.2-2.5-10.5-3.8-16-3.8s-11.9,1.9-15.2,5.7c-3.4,3.8-5,9.2-5,16.2s1.7,12.5,5,16.4,8.4,5.9,15.2,5.9,10.9-1.3,16.1-3.8l1.5,9.1c-4.6,3.1-10.9,4.7-18.7,4.7h.1Z"/>
    <path class="st0" d="M800.5,393.7h-11.3v-33c0-7.3-1.1-12.4-3.3-15.4s-6-4.5-11.4-4.5-12.7,2.7-16.1,8.1v44.8h-11.4v-94.4h11.4v39.4c4.1-5.3,10.1-7.9,17.8-7.9,16.2,0,24.3,10,24.3,30v33h0Z"/>
    <path class="st0" d="M867.6,362.9h-44.6c1.3,14.7,9,22,23.1,22s12.2-1.2,17.7-3.6l1.5,8.9c-7.3,3.2-14.2,4.8-20.6,4.8s-9.9-.8-14-2.5-7.6-4-10.5-6.9-5-6.3-6.5-10.3-2.3-8.3-2.3-12.9.7-8.6,2.1-12.5c1.4-3.9,3.4-7.2,6-10s5.8-5,9.5-6.7c3.7-1.6,7.9-2.5,12.5-2.5s7.5.6,10.8,1.8c3.3,1.2,6.1,2.9,8.4,5.2,2.3,2.3,4.1,5,5.4,8.2,1.3,3.2,1.9,6.9,1.9,10.9s-.2,4.4-.5,6h0ZM841.4,340.9c-9.1,0-14.9,4.7-17.3,14.2h32.4c0-4.5-1.3-8-3.8-10.5s-6.3-3.7-11.3-3.7h0Z"/>
    <path class="st0" d="M900.7,385.9l-1.6,9.1h-3.6c-5.5,0-9.6-1.4-12.1-4.2-2.6-2.8-3.8-6.4-3.8-10.6v-80.8h11.3v74.3c0,2.6,0,4.7.3,6.4.2,1.6.6,2.9,1.3,3.8s1.7,1.5,3,1.8,3.1.4,5.3.4v-.2Z"/>
    <path class="st0" d="M930.4,385.9l-1.6,9.1h-3.6c-5.5,0-9.6-1.4-12.1-4.2-2.6-2.8-3.8-6.4-3.8-10.6v-80.8h11.3v74.3c0,2.6,0,4.7.3,6.4s.6,2.9,1.3,3.8,1.7,1.5,3,1.8,3.1.4,5.3.4v-.2Z"/>
    <path class="st0" d="M1034.4,393.7h-11.3v-36.2c0-5.8-1.1-10-3.4-12.6-2.3-2.6-6-4-11.1-4-10.9,0-16.3,5.7-16.3,17.1v35.7h-11.3v-34c0-7-1.2-12-3.7-14.7-2.5-2.8-6.1-4.2-10.7-4.2-7.9,0-13.3,2.7-16.3,8.1v44.8h-11.3v-61.7h8.8l1.3,6.5c3.4-3,6.4-5.1,9.2-6.2s5.9-1.6,9.3-1.6c9.4,0,16.3,4.1,20.9,12.3,4.3-8.2,11.8-12.3,22.5-12.3,15.8,0,23.6,8.9,23.6,26.6v36.4h-.2Z"/>
    <path class="st0" d="M1100.8,385.9l-1.8,9.1h-.9c-2.5,0-4.6-.1-6.3-.4-1.7-.3-3.1-.8-4.3-1.5-1.2-.7-2.2-1.7-3-2.8-.8-1.2-1.6-2.6-2.3-4.3-5.2,6-11.5,9.1-18.9,9.1s-10.4-1.7-13.8-5-5.2-7.6-5.2-12.9,1.2-7.8,3.5-10.6c2.3-2.8,5.2-5,8.8-6.7,3.6-1.7,7.5-2.9,11.9-3.6s8.6-1.1,12.7-1.2c0-5.5-1.1-9.3-3.2-11.3s-5.5-3-10.2-3-10.8,1.8-16.2,5.5l-1.6-9.2c5.5-4.3,12.5-6.4,20.9-6.4s7.3.5,10.1,1.6c2.8,1.1,5,2.7,6.7,5s3,5.4,3.8,9.1c.8,3.8,1.2,8.4,1.2,13.8v12.6c0,4.9.4,8.2,1.3,10.1.8,1.9,2.8,2.8,5.8,2.8h1.1v.2ZM1081.3,377.6v-14.7c-9,.3-15.5,1.5-19.4,3.6s-5.8,5.4-5.8,10,3.2,9.4,9.6,9.4,5.9-.8,8.7-2.3c2.8-1.5,5.1-3.5,7-6h0Z"/>
    <path class="st0" d="M1165,393.7h-11.3v-34c0-6.6-1.2-11.4-3.7-14.4s-6.6-4.5-12.4-4.5-13.8,2.7-16.8,8.1v44.8h-11.3v-61.7h8.8l1.3,6.5c5.9-5.2,12.7-7.8,20.4-7.8,16.8,0,25.1,9.6,25.1,29v34h0Z"/>
    <path class="st0" d="M114.6,338.4c-3.7-3.7-8.1-5.6-13.3-5.6s-9.7,1.9-13.4,5.6c-3.7,3.7-5.6,8.2-5.6,13.4s1.9,9.7,5.6,13.4c3.7,3.7,8.2,5.6,13.4,5.6s9.6-1.9,13.3-5.6c3.7-3.7,5.5-8.2,5.5-13.4s-1.8-9.7-5.5-13.4ZM112.6,363.4c-3.1,3.2-6.9,4.8-11.3,4.8s-8.2-1.6-11.4-4.8c-3.1-3.2-4.7-7.1-4.7-11.6s1.6-8.4,4.7-11.6,6.9-4.8,11.4-4.8,8.2,1.6,11.3,4.8c3.1,3.2,4.7,7,4.7,11.6s-1.6,8.4-4.7,11.6Z"/>
    <path class="st0" d="M110.8,347.6c0-4.4-2.4-6.6-7.2-6.6h-10.8v21.2h4.5v-6.9h5.7c2.1,0,3.1,1,3.1,3v3.9h4.5v-4.7c0-2.3-1-3.7-3-4.2,2.2-.6,3.3-2.6,3.3-5.8h0ZM103,351.5h-5.7v-6.7h6c2.2,0,3.3,1.1,3.3,3.3s-1.2,3.4-3.5,3.4h-.1Z"/>
  </g>
</svg>